<?xml version="1.0" standalone="no"?>
<!DOCTYPE svg PUBLIC "-//W3C//DTD SVG 20010904//EN"
 "http://www.w3.org/TR/2001/REC-SVG-20010904/DTD/svg10.dtd">
<svg version="1.0" xmlns="http://www.w3.org/2000/svg"
 width="20.000000pt" height="20.000000pt" viewBox="0 0 200.000000 150.000000"
 preserveAspectRatio="xMidYMid meet">
<metadata>
Created by potrace 1.16, written by Peter Selinger 2001-2019
</metadata>
<g transform="translate(0.000000,180.000000) scale(0.100000,-0.100000)"
fill="#ccc" stroke="none">
<path d="M363 1405 c-157 -34 -289 -156 -343 -316 -19 -54 -21 -81 -18 -174 3
-103 6 -115 40 -188 62 -129 179 -228 312 -263 174 -46 388 23 501 162 l40 49
75 -75 c107 -108 201 -149 340 -150 221 -1 421 149 475 355 74 286 -102 563
-387 607 -169 26 -326 -28 -437 -148 l-60 -66 -62 66 c-122 131 -292 181 -476
141z m241 -229 c161 -67 207 -286 88 -418 -56 -62 -104 -82 -192 -83 -85 0
-128 16 -183 70 -52 51 -81 118 -81 190 0 186 195 313 368 241z m801 -5 c86
-39 148 -138 149 -235 0 -102 -58 -196 -152 -243 -54 -26 -174 -24 -227 4
-170 91 -196 319 -48 440 77 63 184 76 278 34z"/>
<path d="M451 1013 c-21 -11 -40 -31 -52 -57 -23 -50 -23 -65 -3 -115 20 -50
86 -87 138 -77 71 13 123 84 110 151 -6 31 -8 33 -39 28 -27 -4 -34 -2 -40 16
-4 13 -1 28 6 37 16 20 8 26 -43 31 -28 2 -55 -2 -77 -14z"/>
<path d="M1235 1016 c-48 -22 -68 -51 -73 -109 -5 -67 25 -116 82 -135 101
-33 197 52 172 153 -5 21 -10 24 -33 19 -34 -9 -58 19 -42 48 6 11 8 22 6 25
-13 12 -85 12 -112 -1z"/>
<path d="M1764 608 c-23 -45 -111 -136 -160 -164 -101 -59 -234 -84 -343 -64
-34 6 -66 8 -69 5 -10 -9 55 -61 108 -86 56 -27 168 -36 241 -19 162 38 259
148 259 293 0 74 -11 84 -36 35z"/>
</g>
</svg>
