<svg width="194" height="50" viewBox="0 0 194 50" fill="none" xmlns="http://www.w3.org/2000/svg">
<path opacity="0.965" fill-rule="evenodd" clip-rule="evenodd" d="M172.133 45.8201C172.133 45.8201 186.039 50.215 192.998 37.0273C195.748 47.5741 179.652 54.5214 172.133 45.8201Z" fill="#45307E"/>
<path fill-rule="evenodd" clip-rule="evenodd" d="M104.435 0.00112968C105.036 -0.0126084 105.633 0.0990863 106.189 0.329085C106.744 0.559085 107.245 0.902337 107.661 1.33694C108.528 2.22908 109.041 3.40758 109.101 4.65081V10.14H120.888C121.5 10.1161 122.11 10.2283 122.673 10.4684C123.236 10.7086 123.739 11.0707 124.145 11.5287C124.953 12.4071 125.395 13.5619 125.379 14.7558C125.375 15.3524 125.252 15.9423 125.016 16.4903C124.78 17.0383 124.436 17.5333 124.005 17.9457C123.616 18.3813 123.141 18.7313 122.61 18.9734C122.078 19.2156 121.502 19.3447 120.918 19.3526H109.131V26.8893C109.125 27.914 109.324 28.9296 109.716 29.8765C110.098 30.8023 110.644 31.6511 111.33 32.3816C112.015 33.1135 112.844 33.6966 113.764 34.0946C114.714 34.511 115.74 34.7259 116.778 34.7258C117.816 34.7509 118.85 34.5887 119.831 34.2468C120.67 33.9309 121.431 33.4385 122.063 32.8029C122.94 32.0137 124.07 31.5642 125.249 31.5358C126.47 31.5345 127.642 32.0151 128.51 32.8732C128.95 33.2632 129.301 33.7429 129.541 34.28C129.766 34.8012 129.891 35.36 129.911 35.9274C129.933 36.4983 129.853 37.0686 129.674 37.6112C129.493 38.1542 129.188 38.6475 128.783 39.052C127.255 40.5566 125.463 41.7667 123.496 42.6215C121.542 43.4498 119.44 43.8697 117.318 43.8555C115.021 43.8697 112.742 43.4627 110.592 42.6546C108.533 41.8824 106.645 40.7163 105.033 39.2216C103.416 37.7116 102.121 35.8911 101.224 33.8689C100.262 31.6718 99.7606 29.301 99.7507 26.9027V4.32494C99.7398 3.73741 99.8606 3.1549 100.104 2.62012C100.348 2.08534 100.708 1.61185 101.158 1.23436C102.056 0.4244 103.226 -0.0161521 104.435 0.00112968Z" fill="#45307E"/>
<path fill-rule="evenodd" clip-rule="evenodd" d="M92.0658 10.5071C92.6523 10.4968 93.2337 10.6175 93.7676 10.8604C94.3016 11.1032 94.7747 11.462 95.1525 11.9107C95.9239 12.7168 96.3656 13.7825 96.3904 14.8979C96.3914 15.4832 96.2722 16.0624 96.0402 16.5997C95.8083 17.137 95.4685 17.621 95.042 18.0217C94.6617 18.4358 94.2009 18.7681 93.6879 18.998C93.1748 19.228 92.6201 19.3508 92.0579 19.359H80.27C79.7585 19.3445 79.2589 19.5145 78.8624 19.838C78.6653 20.0061 78.5098 20.2177 78.4082 20.456C78.3066 20.6944 78.2617 20.953 78.277 21.2117C78.2586 21.4854 78.3016 21.7598 78.4029 22.0148C78.5042 22.2699 78.6612 22.499 78.8624 22.6855C79.2485 23.0309 79.7521 23.2155 80.27 23.2016H88.0245C89.3907 23.1898 90.7411 23.495 91.9696 24.0931C93.1624 24.6745 94.2336 25.4778 95.1256 26.4602C95.9802 27.3872 96.686 28.4409 97.2181 29.5839C97.7368 30.7503 97.9945 32.0159 97.9732 33.2923C98.0273 34.7513 97.7579 36.2041 97.1842 37.5467C96.6553 38.8128 95.8732 39.9574 94.8858 40.9103C93.9093 41.8346 92.7685 42.5682 91.5222 43.073C90.1463 43.617 88.6769 43.885 87.1976 43.862H74.5638C73.9916 43.8707 73.4234 43.7661 72.8917 43.5544C72.3601 43.3426 71.8756 43.0277 71.4662 42.6279C71.0422 42.2346 70.7067 41.7556 70.4819 41.2228C70.257 40.69 70.1479 40.1155 70.1619 39.5374C70.1685 38.3785 70.6088 37.2641 71.3959 36.4136C71.7665 35.9683 72.2273 35.6067 72.748 35.3526C73.2686 35.0986 73.8372 34.9579 74.4163 34.9398H87.0406C88.2683 34.9398 88.8824 34.3909 88.8829 33.2931C88.919 33.0428 88.8962 32.7875 88.8164 32.5476C88.7366 32.3076 88.6019 32.0896 88.423 31.9108C88.2442 31.732 88.0261 31.5974 87.7861 31.5177C87.5461 31.438 87.2908 31.4153 87.0406 31.4515H79.5039C78.1624 31.4553 76.837 31.1587 75.6251 30.5836C74.4223 30.0187 73.3481 29.213 72.469 28.2166C71.5954 27.2411 70.8885 26.1284 70.3765 24.9232C69.8673 23.7067 69.6104 22.3994 69.6214 21.0807C69.6196 19.7143 69.8878 18.361 70.4105 17.0985C70.9127 15.8518 71.645 14.7108 72.5692 13.7349C73.488 12.7675 74.5834 11.9846 75.7963 11.4286C77.0703 10.8486 78.4491 10.534 79.8487 10.5039L92.0658 10.5071Z" fill="#45307E"/>
<path fill-rule="evenodd" clip-rule="evenodd" d="M51.5725 19.5614C50.5608 19.5527 49.558 19.7508 48.6256 20.1436C47.7203 20.527 46.8935 21.074 46.1867 21.7572C45.4738 22.4519 44.9032 23.2789 44.5069 24.1921C44.0808 25.1587 43.8635 26.2043 43.8694 27.2606C43.8641 28.2886 44.0749 29.3064 44.488 30.2478C45.301 32.0956 46.777 33.5716 48.6248 34.3846C49.552 34.7972 50.557 35.0057 51.5718 34.9961C52.5988 35.0013 53.6155 34.7906 54.5558 34.3775C55.4702 33.9814 56.2986 33.4108 56.9947 32.6977C57.6862 31.9773 58.2443 31.1397 58.6429 30.2241C59.0451 29.2876 59.2495 28.2782 59.2434 27.259C59.1933 25.2529 58.385 23.3403 56.9813 21.9063C55.5603 20.439 53.6155 19.5952 51.5733 19.5598L51.5725 19.5614ZM51.5725 10.5666C53.7664 10.557 55.9385 11.001 57.9525 11.8708C59.9262 12.7125 61.7206 13.9242 63.239 15.4403C64.7578 16.9634 65.9795 18.7561 66.8416 20.7267C67.7186 22.7701 68.1736 24.9697 68.1793 27.1933C68.185 29.4169 67.7413 31.6188 66.8747 33.6666C66.0308 35.6203 64.8332 37.4013 63.3423 38.9199C61.8397 40.4369 60.057 41.6478 58.093 42.4855C56.0324 43.3641 53.8126 43.8081 51.5725 43.7897C49.361 43.8056 47.168 43.3863 45.1184 42.5557C42.6181 41.5086 40.4128 39.8643 38.6956 37.7669C36.9785 35.6695 35.8019 33.183 35.2689 30.5252C34.7359 27.8674 34.8629 25.1195 35.6386 22.5222C36.4143 19.9249 37.8151 17.5575 39.7183 15.6273C41.242 14.1187 43.0351 12.9092 45.0048 12.0617C47.0804 11.1549 49.3088 10.6487 51.5725 10.5697V10.5666Z" fill="#45307E"/>
<path fill-rule="evenodd" clip-rule="evenodd" d="M4.4611 0.276552C5.02685 0.266712 5.58878 0.370906 6.11339 0.582919C6.638 0.794932 7.11455 1.11042 7.5146 1.51057C8.37657 2.36849 8.87982 3.52224 8.92221 4.73765V12.6278C10.0509 11.9118 11.3084 11.4226 12.6243 11.1879C13.9587 10.9204 15.3157 10.7822 16.6767 10.7752C18.8635 10.7658 21.031 11.1851 23.0567 12.0092C25.0233 12.8027 26.8183 13.9684 28.3431 15.4423C29.8603 16.9171 31.0841 18.6662 31.9497 20.5969C32.8414 22.574 33.2975 24.7197 33.2871 26.8885V39.4544C33.2977 40.0388 33.1906 40.6194 32.9723 41.1616C32.7539 41.7038 32.4287 42.1966 32.0159 42.6105C31.6016 43.0389 31.1062 43.3807 30.5585 43.616C30.0109 43.8513 29.422 43.9753 28.826 43.981C28.2677 43.9936 27.7126 43.8938 27.1937 43.6875C26.6748 43.4812 26.2028 43.1726 25.8056 42.7801C24.9741 41.9604 24.4422 40.885 24.2954 39.7266V27.3824C24.2965 26.3804 24.0986 25.388 23.7131 24.4631C23.3369 23.5451 22.7908 22.7065 22.1035 21.9911C21.4179 21.2825 20.6025 20.7123 19.7018 20.3113C18.7508 19.8914 17.7208 19.6804 16.6814 19.6927C15.706 19.6732 14.7369 19.8519 13.8326 20.2181C12.9284 20.5843 12.108 21.1303 11.421 21.823C9.99493 23.2101 9.10723 25.0582 8.91589 27.0384V39.4639C8.92652 40.0483 8.81946 40.6289 8.60109 41.1711C8.38272 41.7133 8.0575 42.206 7.64479 42.6199C7.23063 43.0489 6.73517 43.3911 6.18734 43.6266C5.63951 43.862 5.05026 43.986 4.454 43.9913C3.91109 44.0017 3.37181 43.9005 2.86963 43.6939C2.36744 43.4874 1.91305 43.1798 1.53464 42.7904C0.720588 41.955 0.184586 40.8886 0 39.7369L0 4.46071C0.0794221 3.35016 0.553847 2.30474 1.33738 1.51373C1.74337 1.10159 2.23088 0.778693 2.76875 0.565665C3.30662 0.352637 3.88302 0.254168 4.4611 0.276552Z" fill="#45307E"/>
<path opacity="0.965" fill-rule="evenodd" clip-rule="evenodd" d="M175.522 17.2126C177.401 17.2126 179.238 17.7698 180.8 18.8137C182.362 19.8577 183.58 21.3415 184.299 23.0775C185.018 24.8135 185.206 26.7237 184.84 28.5666C184.473 30.4096 183.568 32.1024 182.24 33.4311C180.911 34.7597 179.218 35.6646 177.375 36.0312C175.532 36.3977 173.622 36.2096 171.886 35.4905C170.15 34.7715 168.666 33.5537 167.622 31.9914C166.578 30.429 166.021 28.5922 166.021 26.7132C166.021 24.1935 167.022 21.7769 168.804 19.9952C170.585 18.2135 173.002 17.2126 175.522 17.2126ZM147.779 17.2126C149.658 17.2126 151.495 17.7698 153.057 18.8137C154.62 19.8577 155.837 21.3415 156.556 23.0775C157.276 24.8135 157.464 26.7237 157.097 28.5666C156.73 30.4096 155.826 32.1024 154.497 33.4311C153.168 34.7597 151.475 35.6646 149.633 36.0312C147.79 36.3977 145.879 36.2096 144.143 35.4905C142.407 34.7715 140.924 33.5537 139.88 31.9914C138.836 30.429 138.279 28.5922 138.279 26.7132C138.279 24.1935 139.279 21.7769 141.061 19.9952C142.843 18.2135 145.259 17.2126 147.779 17.2126ZM173.08 43.187C174.17 43.4072 175.281 43.5158 176.394 43.5113C177.539 43.465 178.678 43.3172 179.797 43.0695C180.902 42.8202 181.98 42.4662 183.017 42.0122C184.03 41.5707 185 41.038 185.916 40.4208C186.798 39.8221 187.622 39.1425 188.377 38.3906C189.124 37.6449 189.796 36.828 190.384 35.9518C190.986 35.0582 191.502 34.1098 191.925 33.1192C192.785 31.0671 193.219 28.8611 193.199 26.6358C193.204 25.4638 193.094 24.2941 192.871 23.1436C192.657 22.053 192.328 20.9883 191.888 19.9679C191.459 18.9662 190.936 18.0077 190.325 17.1053C189.127 15.3416 187.592 13.8318 185.809 12.6623C184.905 12.0694 183.947 11.5647 182.946 11.1553C181.92 10.7385 180.856 10.425 179.767 10.2195C178.651 10.0102 177.518 9.90661 176.382 9.91025C175.229 9.90671 174.079 10.0177 172.949 10.2416C171.863 10.4564 170.804 10.7862 169.788 11.2255C168.786 11.6528 167.828 12.1746 166.925 12.7838C166.045 13.3839 165.226 14.0686 164.479 14.8282C164.22 15.0868 163.974 15.3586 163.742 15.6425C163.522 15.9186 163.249 16.2319 163.043 16.5049L161.828 18.1081L160.616 16.4985C160.379 16.1782 160.119 15.861 159.846 15.5517C159.573 15.2424 159.304 14.9552 159.005 14.6601C158.248 13.9152 157.419 13.2475 156.53 12.6671C154.703 11.4635 152.656 10.6323 150.507 10.2211C149.39 10.0116 148.257 9.90802 147.121 9.91183C145.97 9.90826 144.821 10.0193 143.691 10.2432C142.605 10.4575 141.546 10.7873 140.53 11.2271C139.528 11.6552 138.569 12.177 137.665 12.7854C136.785 13.3864 135.966 14.0711 135.219 14.8298C134.468 15.5904 133.79 16.419 133.193 17.3049C132.586 18.2058 132.063 19.1603 131.63 20.1564C130.749 22.1986 130.304 24.4022 130.323 26.6264C130.318 27.7766 130.429 28.9243 130.654 30.0523C130.876 31.1379 131.216 32.1962 131.667 33.2083C132.108 34.2204 132.641 35.1897 133.259 36.104C133.869 36.9943 134.559 37.8265 135.321 38.5902C136.861 40.1257 138.679 41.3536 140.678 42.2079C141.684 42.6442 142.732 42.975 143.806 43.1949C144.896 43.415 146.007 43.5237 147.119 43.5192C148.266 43.473 149.407 43.3251 150.527 43.0774C151.63 42.8281 152.707 42.4741 153.743 42.0201C156.428 40.8656 158.775 39.0463 160.562 36.7337L161.778 35.1312L162.986 36.7408C163.479 37.3907 164.015 38.006 164.592 38.5823C166.131 40.1186 167.949 41.3465 169.948 42.2C170.953 42.6372 172.002 42.9681 173.076 43.187H173.08ZM170.997 27.9803C170.992 28.64 171.135 29.2925 171.415 29.8898C171.695 30.4872 172.105 31.0142 172.616 31.4323C173.126 31.8504 173.723 32.1489 174.364 32.306C175.005 32.463 175.673 32.4745 176.318 32.3398C176.964 32.205 177.572 31.9273 178.096 31.5272C178.621 31.127 179.049 30.6144 179.349 30.0271C179.65 29.4398 179.815 28.7927 179.833 28.1332C179.85 27.4737 179.72 26.8187 179.452 26.2161C179.324 26.3943 179.159 26.5419 178.967 26.6482C178.776 26.7544 178.563 26.8166 178.344 26.8302C178.126 26.8438 177.907 26.8085 177.703 26.7269C177.5 26.6452 177.317 26.5193 177.169 26.3582C177.02 26.1971 176.91 26.005 176.845 25.7957C176.78 25.5865 176.763 25.3654 176.794 25.1485C176.825 24.9317 176.904 24.7246 177.026 24.5422C177.147 24.3599 177.308 24.2069 177.496 24.0944C176.823 23.7357 176.07 23.557 175.308 23.5756C174.546 23.5942 173.802 23.8096 173.148 24.2008C172.494 24.592 171.952 25.1456 171.575 25.808C171.199 26.4704 170.999 27.219 170.997 27.9811V27.9803ZM143.917 27.9803C143.912 28.64 144.054 29.2925 144.334 29.8898C144.614 30.4872 145.025 31.0142 145.535 31.4323C146.045 31.8504 146.643 32.1489 147.283 32.306C147.924 32.463 148.592 32.4745 149.238 32.3398C149.884 32.205 150.491 31.9273 151.016 31.5272C151.54 31.127 151.968 30.6144 152.269 30.0271C152.569 29.4398 152.734 28.7927 152.752 28.1332C152.77 27.4737 152.64 26.8187 152.371 26.2161C152.244 26.3943 152.078 26.5419 151.887 26.6482C151.695 26.7544 151.482 26.8166 151.264 26.8302C151.045 26.8438 150.826 26.8085 150.623 26.7269C150.419 26.6452 150.237 26.5193 150.088 26.3582C149.94 26.1971 149.829 26.005 149.764 25.7957C149.699 25.5865 149.682 25.3654 149.713 25.1485C149.745 24.9317 149.824 24.7246 149.945 24.5422C150.067 24.3599 150.227 24.2069 150.415 24.0944C149.743 23.7357 148.989 23.557 148.227 23.5756C147.466 23.5942 146.722 23.8095 146.068 24.2006C145.414 24.5917 144.872 25.1452 144.495 25.8075C144.118 26.4698 143.919 27.2183 143.917 27.9803Z" fill="#45307E"/>
<path fill-rule="evenodd" clip-rule="evenodd" d="M175.522 17.2126C177.401 17.2126 179.238 17.7698 180.8 18.8137C182.362 19.8577 183.58 21.3415 184.299 23.0775C185.018 24.8135 185.206 26.7237 184.84 28.5666C184.473 30.4096 183.568 32.1024 182.24 33.4311C180.911 34.7597 179.218 35.6646 177.375 36.0312C175.532 36.3977 173.622 36.2096 171.886 35.4905C170.15 34.7715 168.666 33.5537 167.622 31.9914C166.578 30.429 166.021 28.5922 166.021 26.7132C166.021 24.1935 167.022 21.7769 168.804 19.9952C170.585 18.2135 173.002 17.2126 175.522 17.2126ZM147.779 17.2126C149.658 17.2126 151.495 17.7698 153.057 18.8137C154.62 19.8577 155.837 21.3415 156.556 23.0775C157.276 24.8135 157.464 26.7237 157.097 28.5666C156.73 30.4096 155.826 32.1024 154.497 33.4311C153.168 34.7597 151.475 35.6646 149.633 36.0312C147.79 36.3977 145.879 36.2096 144.143 35.4905C142.407 34.7715 140.924 33.5537 139.88 31.9914C138.836 30.429 138.279 28.5922 138.279 26.7132C138.279 24.1935 139.279 21.7769 141.061 19.9952C142.843 18.2135 145.259 17.2126 147.779 17.2126ZM173.08 43.187C174.17 43.4072 175.281 43.5158 176.394 43.5113C177.539 43.465 178.678 43.3172 179.797 43.0695C180.902 42.8202 181.98 42.4662 183.017 42.0122C184.03 41.5707 185 41.038 185.916 40.4208C186.798 39.8221 187.622 39.1425 188.377 38.3906C189.124 37.6449 189.796 36.828 190.384 35.9518C190.986 35.0582 191.502 34.1098 191.925 33.1192C192.785 31.0671 193.219 28.8611 193.199 26.6358C193.204 25.4638 193.094 24.2941 192.871 23.1436C192.657 22.053 192.328 20.9883 191.888 19.9679C191.459 18.9662 190.936 18.0077 190.325 17.1053C189.127 15.3416 187.592 13.8318 185.809 12.6623C184.905 12.0694 183.947 11.5647 182.946 11.1553C181.92 10.7385 180.856 10.425 179.767 10.2195C178.651 10.0102 177.518 9.90661 176.382 9.91025C175.229 9.90671 174.079 10.0177 172.949 10.2416C171.863 10.4564 170.804 10.7862 169.788 11.2255C168.786 11.6528 167.828 12.1746 166.925 12.7838C166.045 13.3839 165.226 14.0686 164.479 14.8282C164.22 15.0868 163.974 15.3586 163.742 15.6425C163.522 15.9186 163.249 16.2319 163.043 16.5049L161.828 18.1081L160.616 16.4985C160.379 16.1782 160.119 15.861 159.846 15.5517C159.573 15.2424 159.304 14.9552 159.005 14.6601C158.248 13.9152 157.419 13.2475 156.53 12.6671C154.703 11.4635 152.656 10.6323 150.507 10.2211C149.39 10.0116 148.257 9.90802 147.121 9.91183C145.97 9.90826 144.821 10.0193 143.691 10.2432C142.605 10.4575 141.546 10.7873 140.53 11.2271C139.528 11.6552 138.569 12.177 137.665 12.7854C136.785 13.3864 135.966 14.0711 135.219 14.8298C134.468 15.5904 133.79 16.419 133.193 17.3049C132.586 18.2058 132.063 19.1603 131.63 20.1564C130.749 22.1986 130.304 24.4022 130.323 26.6264C130.318 27.7766 130.429 28.9243 130.654 30.0523C130.876 31.1379 131.216 32.1962 131.667 33.2083C132.108 34.2204 132.641 35.1897 133.259 36.104C133.869 36.9943 134.559 37.8265 135.321 38.5902C136.861 40.1257 138.679 41.3536 140.678 42.2079C141.684 42.6442 142.732 42.975 143.806 43.1949C144.896 43.415 146.007 43.5237 147.119 43.5192C148.266 43.473 149.407 43.3251 150.527 43.0774C151.63 42.8281 152.707 42.4741 153.743 42.0201C156.428 40.8656 158.775 39.0463 160.562 36.7337L161.778 35.1312L162.986 36.7408C163.479 37.3907 164.015 38.006 164.592 38.5823C166.131 40.1186 167.949 41.3465 169.948 42.2C170.953 42.6372 172.002 42.9681 173.076 43.187H173.08Z" fill="#45307E"/>
</svg>
