<svg width="24" height="24" viewBox="0 0 24 24" fill="none" xmlns="http://www.w3.org/2000/svg">
<path d="M14.9231 1.08753e-05C14.1176 -0.00199036 13.2821 0.272179 12.6417 0.843532V0.875552L12.6097 0.905571L0.914432 12.5077C-0.298318 13.7205 -0.290313 15.6937 0.852393 16.9785L0.882412 17.0105H0.914432L6.91814 23.0142C8.13189 24.227 10.1041 24.219 11.3909 23.0763V23.0463L11.4209 23.0142L23.0221 11.4131C24.2899 10.1453 24.3289 8.12303 23.1162 6.91028L17.1124 0.906572C16.5061 0.300197 15.7296 0.00101149 14.9231 1.08753e-05ZM14.8931 2.03127C15.2113 2.03127 15.5115 2.11932 15.7036 2.31344L21.7093 8.31715C22.0965 8.70539 22.1496 9.47187 21.6152 10.0062L16.5801 15.0393L8.91938 7.37957L13.9855 2.34346L14.0155 2.31344C14.2687 2.10331 14.5859 2.03327 14.8911 2.03127H14.8931ZM7.48149 8.81746L15.1412 16.4782L10.0441 21.5754L10.0141 21.6074C9.49674 22.0356 8.70525 21.9876 8.32501 21.6074L2.35432 15.6657C2.33831 15.6477 2.33731 15.6217 2.3223 15.6027C1.91205 15.0853 1.94807 14.2888 2.3223 13.9146L7.48249 8.81746H7.48149Z" fill="#45307E"/>
</svg>
