<svg width="21" height="17" viewBox="0 0 21 17" fill="none" xmlns="http://www.w3.org/2000/svg">
<path d="M17.85 0H3.15C2.31457 0 1.51335 0.335825 0.922614 0.933597C0.331874 1.53137 0 2.34212 0 3.1875V13.8125C0 14.6579 0.331874 15.4686 0.922614 16.0664C1.51335 16.6642 2.31457 17 3.15 17H17.85C18.6854 17 19.4866 16.6642 20.0774 16.0664C20.6681 15.4686 21 14.6579 21 13.8125V3.1875C21 2.34212 20.6681 1.53137 20.0774 0.933597C19.4866 0.335825 18.6854 0 17.85 0ZM3.15 14.875C2.87152 14.875 2.60445 14.7631 2.40754 14.5638C2.21062 14.3645 2.1 14.0943 2.1 13.8125V11.2413L5.565 7.74563C5.76128 7.55095 6.02516 7.4419 6.3 7.4419C6.57484 7.4419 6.83872 7.55095 7.035 7.74563L14.0805 14.875H3.15ZM18.9 13.8125C18.9 14.0943 18.7894 14.3645 18.5925 14.5638C18.3955 14.7631 18.1285 14.875 17.85 14.875H17.0415L13.041 10.8056L13.965 9.87062C14.1613 9.67595 14.4252 9.5669 14.7 9.5669C14.9748 9.5669 15.2387 9.67595 15.435 9.87062L18.9 13.3663V13.8125ZM18.9 10.37L16.926 8.38313C16.3276 7.80134 15.5299 7.47642 14.7 7.47642C13.8701 7.47642 13.0724 7.80134 12.474 8.38313L11.55 9.31813L8.526 6.25813C7.92756 5.67634 7.12987 5.35142 6.3 5.35142C5.47013 5.35142 4.67244 5.67634 4.074 6.25813L2.1 8.245V3.1875C2.1 2.90571 2.21062 2.63546 2.40754 2.4362C2.60445 2.23694 2.87152 2.125 3.15 2.125H17.85C18.1285 2.125 18.3955 2.23694 18.5925 2.4362C18.7894 2.63546 18.9 2.90571 18.9 3.1875V10.37Z" fill="#45307E"/>
</svg>
