<svg width="21" height="21" viewBox="0 0 21 21" fill="none" xmlns="http://www.w3.org/2000/svg">
<path d="M1.00009 7.10101C1.2653 7.10101 1.51966 6.99565 1.70719 6.80811C1.89473 6.62058 2.00009 6.36622 2.00009 6.101V5.911C2.00009 5.64579 1.89473 5.39143 1.70719 5.2039C1.51966 5.01636 1.2653 4.911 1.00009 4.911C0.73487 4.911 0.480516 5.01636 0.29298 5.2039C0.105443 5.39143 8.63805e-05 5.64579 8.63805e-05 5.911V6.101C8.63805e-05 6.36622 0.105443 6.62058 0.29298 6.80811C0.480516 6.99565 0.73487 7.10101 1.00009 7.10101ZM1.00009 3.101C1.1457 3.09865 1.28904 3.06452 1.42009 3.001C1.6853 2.95857 1.9228 2.81252 2.08033 2.59497C2.23786 2.37743 2.30252 2.10622 2.26009 1.841C2.21765 1.57579 2.0716 1.33829 1.85406 1.18076C1.63651 1.02323 1.3653 0.95857 1.10009 1.001H1.00009C0.725138 1.02376 0.469048 1.14994 0.283465 1.35408C0.0978827 1.55822 -0.00338496 1.82514 8.63805e-05 2.101C0.012925 2.35746 0.123923 2.59915 0.310086 2.77601C0.496249 2.95286 0.74331 3.05133 1.00009 3.051V3.101ZM18.3901 2.911C18.5459 3.03339 18.7346 3.10672 18.9322 3.1217C19.1297 3.13668 19.3273 3.09262 19.4998 2.99512C19.6723 2.89763 19.8119 2.75108 19.901 2.57409C19.9901 2.39709 20.0246 2.19763 20.0001 2.001C20.0001 1.73579 19.8947 1.48143 19.7072 1.2939C19.5197 1.10636 19.2653 1.001 19.0001 1.001H18.9001C18.681 1.00107 18.468 1.07308 18.2938 1.20597C18.1196 1.33886 17.9939 1.52528 17.936 1.73657C17.878 1.94786 17.8911 2.17233 17.9731 2.37548C18.0552 2.57862 18.2017 2.74921 18.3901 2.861V2.911ZM9.89009 3.001H10.1101C10.3753 3.001 10.6297 2.89565 10.8172 2.70811C11.0047 2.52058 11.1101 2.26622 11.1101 2.001C11.1101 1.73579 11.0047 1.48143 10.8172 1.2939C10.6297 1.10636 10.3753 1.001 10.1101 1.001H9.89009C9.62487 1.001 9.37052 1.10636 9.18298 1.2939C8.99544 1.48143 8.89009 1.73579 8.89009 2.001C8.89009 2.26622 8.99544 2.52058 9.18298 2.70811C9.37052 2.89565 9.62487 3.001 9.89009 3.001ZM5.39009 3.001H5.60009C5.8653 3.001 6.11966 2.89565 6.30719 2.70811C6.49473 2.52058 6.60009 2.26622 6.60009 2.001C6.60009 1.73579 6.49473 1.48143 6.30719 1.2939C6.11966 1.10636 5.8653 1.001 5.60009 1.001H5.39009C5.12487 1.001 4.87052 1.10636 4.68298 1.2939C4.49544 1.48143 4.39009 1.73579 4.39009 2.001C4.39009 2.26622 4.49544 2.52058 4.68298 2.70811C4.87052 2.89565 5.12487 3.001 5.39009 3.001ZM19.0001 19.001C18.8545 19.0034 18.7111 19.0375 18.5801 19.101C18.3823 19.1937 18.2202 19.3487 18.1188 19.5422C18.0174 19.7357 17.9821 19.9571 18.0184 20.1726C18.0547 20.388 18.1605 20.5856 18.3197 20.7352C18.479 20.8848 18.6828 20.9782 18.9001 21.001H19.0001C19.275 20.9782 19.5311 20.8521 19.7167 20.6479C19.9023 20.4438 20.0036 20.1769 20.0001 19.901C19.9752 19.6535 19.859 19.4241 19.6741 19.2577C19.4892 19.0913 19.2489 18.9998 19.0001 19.001ZM12.0001 10.001C12.0001 9.73579 11.8947 9.48143 11.7072 9.2939C11.5197 9.10636 11.2653 9.001 11.0001 9.001H1.27009C1.18044 8.98971 1.08973 8.98971 1.00009 9.001C0.73487 9.001 0.480516 9.10636 0.29298 9.2939C0.105443 9.48143 8.63805e-05 9.73579 8.63805e-05 10.001V20.001C8.63805e-05 20.2662 0.105443 20.5206 0.29298 20.7081C0.480516 20.8956 0.73487 21.001 1.00009 21.001H11.1001C11.2673 20.9997 11.4316 20.9566 11.5779 20.8754C11.7241 20.7942 11.8477 20.6776 11.9372 20.5364C12.0268 20.3951 12.0794 20.2336 12.0904 20.0667C12.1014 19.8998 12.0703 19.7328 12.0001 19.581V10.001ZM10.0001 19.001H3.52009L7.43009 15.101C7.46079 15.0699 7.49737 15.0451 7.53772 15.0283C7.57806 15.0114 7.62135 15.0027 7.66509 15.0027C7.70882 15.0027 7.75211 15.0114 7.79246 15.0283C7.8328 15.0451 7.86938 15.0699 7.90009 15.101L10.0001 17.191V19.001ZM10.0001 14.371L9.32009 13.681C8.87993 13.2444 8.28507 12.9994 7.66509 12.9994C7.0451 12.9994 6.45024 13.2444 6.01009 13.681L2.01009 17.681V11.001H10.0101L10.0001 14.371ZM19.0001 14.371C18.7349 14.371 18.4805 14.4764 18.293 14.6639C18.1054 14.8514 18.0001 15.1058 18.0001 15.371V15.581C18.0001 15.8462 18.1054 16.1006 18.293 16.2881C18.4805 16.4756 18.7349 16.581 19.0001 16.581C19.2653 16.581 19.5197 16.4756 19.7072 16.2881C19.8947 16.1006 20.0001 15.8462 20.0001 15.581V15.401C20.0001 15.1358 19.8947 14.8814 19.7072 14.6939C19.5197 14.5064 19.2653 14.401 19.0001 14.401V14.371ZM19.0001 5.371C18.7349 5.371 18.4805 5.47636 18.293 5.6639C18.1054 5.85143 18.0001 6.10579 18.0001 6.371V6.601C18.0001 6.86622 18.1054 7.12058 18.293 7.30811C18.4805 7.49565 18.7349 7.60101 19.0001 7.60101C19.2653 7.60101 19.5197 7.49565 19.7072 7.30811C19.8947 7.12058 20.0001 6.86622 20.0001 6.601V6.391C20.0001 6.12579 19.8947 5.87143 19.7072 5.6839C19.5197 5.49636 19.2653 5.391 19.0001 5.391V5.371ZM19.0001 9.871C18.7349 9.871 18.4805 9.97636 18.293 10.1639C18.1054 10.3514 18.0001 10.6058 18.0001 10.871V11.091C18.0001 11.3562 18.1054 11.6106 18.293 11.7981C18.4805 11.9856 18.7349 12.091 19.0001 12.091C19.2653 12.091 19.5197 11.9856 19.7072 11.7981C19.8947 11.6106 20.0001 11.3562 20.0001 11.091V10.871C19.9949 10.6093 19.8872 10.36 19.7002 10.1768C19.5132 9.99356 19.2619 9.89095 19.0001 9.891V9.871ZM15.1001 19.001H14.9001C14.6349 19.001 14.3805 19.1064 14.193 19.2939C14.0054 19.4814 13.9001 19.7358 13.9001 20.001C13.9001 20.2662 14.0054 20.5206 14.193 20.7081C14.3805 20.8956 14.6349 21.001 14.9001 21.001H15.1001C15.3653 21.001 15.6197 20.8956 15.8072 20.7081C15.9947 20.5206 16.1001 20.2662 16.1001 20.001C16.1001 19.7358 15.9947 19.4814 15.8072 19.2939C15.6197 19.1064 15.3653 19.001 15.1001 19.001ZM14.6101 3.001C14.8753 3.001 15.1297 2.89565 15.3172 2.70811C15.5047 2.52058 15.6101 2.26622 15.6101 2.001C15.6101 1.73579 15.5047 1.48143 15.3172 1.2939C15.1297 1.10636 14.8753 1.001 14.6101 1.001H14.4001C14.1349 1.001 13.8805 1.10636 13.693 1.2939C13.5054 1.48143 13.4001 1.73579 13.4001 2.001C13.4001 2.26622 13.5054 2.52058 13.693 2.70811C13.8805 2.89565 14.1349 3.001 14.4001 3.001H14.6101Z" fill="#45307E"/>
</svg>
