<svg width="20" height="20" viewBox="0 0 20 20" fill="none" xmlns="http://www.w3.org/2000/svg">
<path d="M17.1182 13.1601H13.0369C12.7982 13.1601 12.5693 13.2549 12.4005 13.4237C12.2317 13.5925 12.1368 13.8215 12.1368 14.0602C12.1368 14.2989 12.2317 14.5278 12.4005 14.6966C12.5693 14.8654 12.7982 14.9602 13.0369 14.9602H15.1971C14.2047 15.9977 12.9247 16.7148 11.5216 17.0192C10.1186 17.3237 8.65654 17.2017 7.32335 16.669C5.99015 16.1362 4.8467 15.2169 4.03992 14.0294C3.23313 12.8418 2.79986 11.4401 2.79577 10.0044C2.78327 9.77504 2.68351 9.55919 2.51694 9.40107C2.35037 9.24294 2.12962 9.15454 1.89995 9.15398C1.67028 9.15342 1.4491 9.24075 1.28177 9.39806C1.11443 9.55537 1.01362 9.77073 1 10C1.00462 11.7575 1.52375 13.4752 2.49332 14.941C3.46288 16.4069 4.84044 17.5567 6.45598 18.2487C8.07151 18.9407 9.8543 19.1445 11.5843 18.8349C13.3143 18.5253 14.9158 17.716 16.1912 16.5068V18.0999C16.1912 18.3386 16.286 18.5676 16.4548 18.7364C16.6236 18.9052 16.8525 19 17.0913 19C17.33 19 17.5589 18.9052 17.7277 18.7364C17.8965 18.5676 17.9913 18.3386 17.9913 18.0999V14.0507C17.9892 13.8182 17.897 13.5955 17.7342 13.4295C17.5714 13.2634 17.3507 13.1669 17.1182 13.1601ZM9.99927 1.00073C7.6921 1.00712 5.47551 1.8994 3.80735 3.49324V1.90007C3.80735 1.66136 3.71252 1.43242 3.54373 1.26363C3.37493 1.09483 3.14599 1 2.90728 1C2.66857 1 2.43963 1.09483 2.27083 1.26363C2.10204 1.43242 2.00721 1.66136 2.00721 1.90007V5.9566C2.00721 6.19512 2.10196 6.42387 2.27062 6.59253C2.43928 6.76119 2.66803 6.85594 2.90655 6.85594H6.95724C7.19596 6.85594 7.42489 6.76111 7.59369 6.59231C7.76249 6.42352 7.85731 6.19458 7.85731 5.95587C7.85731 5.71715 7.76249 5.48822 7.59369 5.31942C7.42489 5.15062 7.19596 5.05579 6.95724 5.05579H4.79852C5.79095 4.01832 7.07092 3.30128 8.47397 2.99679C9.87703 2.69231 11.3391 2.81429 12.6723 3.34707C14.0055 3.87985 15.1489 4.79908 15.9557 5.98667C16.7625 7.17426 17.1958 8.57595 17.1998 10.0117C17.1998 10.2504 17.2947 10.4793 17.4635 10.6481C17.6323 10.8169 17.8612 10.9117 18.0999 10.9117C18.3386 10.9117 18.5676 10.8169 18.7364 10.6481C18.9052 10.4793 19 10.2504 19 10.0117C19.0015 8.82876 18.7698 7.65715 18.3182 6.56387C17.8665 5.47059 17.2037 4.47707 16.3678 3.64016C15.5318 2.80325 14.5391 2.13935 13.4463 1.68645C12.3535 1.23355 11.1822 1.00054 9.99927 1.00073Z" fill="#45307E" stroke="#45307E" stroke-width="0.3"/>
</svg>
